<svg xmlns="http://www.w3.org/2000/svg" viewBox="0 0 1200 800" width="100%" height="100%">
  <defs>
    <linearGradient id="bgGrad_xad1xt" x1="0%" y1="0%" x2="100%" y2="100%">
      <stop offset="0%" stop-color="#141414"/>
      <stop offset="100%" stop-color="#202020"/>
    </linearGradient>
    <pattern id="grid_c35yzd" width="40" height="40" patternUnits="userSpaceOnUse">
      <path d="M 40 0 L 0 0 0 40" fill="none" stroke="#A9A9A9" stroke-opacity="0.08" stroke-width="1"/>
    </pattern>
  </defs>

  <!-- Background -->
  <rect width="1200" height="800" fill="#141414"/>
  <rect width="1200" height="800" fill="url(#grid)"/>

  <!-- Outer Architectural Framing -->
  <rect x="40" y="40" width="1120" height="720" fill="none" stroke="#A9A9A9" stroke-opacity="0.25" stroke-width="1.5"/>
  <rect x="52" y="52" width="1096" height="696" fill="none" stroke="#A9A9A9" stroke-opacity="0.12" stroke-width="0.75" stroke-dasharray="4,4"/>
  
  <line x1="20" y1="40" x2="60" y2="40" stroke="#A9A9A9" stroke-width="1.5"/>
  <line x1="40" y1="20" x2="40" y2="60" stroke="#A9A9A9" stroke-width="1.5"/>
  
  <line x1="1140" y1="40" x2="1180" y2="40" stroke="#A9A9A9" stroke-width="1.5"/>
  <line x1="1160" y1="20" x2="1160" y2="60" stroke="#A9A9A9" stroke-width="1.5"/>

  <line x1="20" y1="760" x2="60" y2="760" stroke="#A9A9A9" stroke-width="1.5"/>
  <line x1="40" y1="740" x2="40" y2="780" stroke="#A9A9A9" stroke-width="1.5"/>

  <line x1="1140" y1="760" x2="1180" y2="760" stroke="#A9A9A9" stroke-width="1.5"/>
  <line x1="1160" y1="740" x2="1160" y2="780" stroke="#A9A9A9" stroke-width="1.5"/>

  <!-- Technical Header -->
  <text x="80" y="90" font-family="monospace" font-size="13" fill="#A9A9A9" fill-opacity="0.9" letter-spacing="3">VAASTVIK DESIGN GROUP &bull; ARCHITECTURAL SPECIFICATION</text>
  <text x="80" y="115" font-family="monospace" font-size="11" fill="#A9A9A9" fill-opacity="0.6" letter-spacing="2">DRAWING REF: VDG-2026-SPEC &bull; SCALE 1:10 &bull; UNITS: MM</text>
  
  <!-- Title & Description -->
  <text x="80" y="180" font-family="Georgia, serif" font-size="38" font-weight="300" fill="#A9A9A9" letter-spacing="1">AGAPE &bull; CRISTALMOOD FREESTANDING TUB</text>
  <text x="80" y="215" font-family="monospace" font-size="13" fill="#A9A9A9" fill-opacity="0.75" letter-spacing="2">FIG 01 &bull; BIO-RESIN COMPOUND &amp; MONOLITHIC PROFILE</text>

  <!-- Central Technical Artwork / Schematic Diagram -->
  <g transform="translate(600, 430)">
    <path d="M-300,-60 Q-280,100 0,100 Q280,100 300,-60 Z" fill="none" stroke="#A9A9A9" stroke-width="2"/>
           <ellipse cx="0" cy="-60" rx="300" ry="40" fill="none" stroke="#A9A9A9" stroke-width="2"/>
           <circle cx="0" cy="60" r="10" fill="none" stroke="#A9A9A9" stroke-width="1.5"/>
  </g>

  <!-- Bottom Specification Box -->
  <rect x="80" y="670" width="1040" height="60" fill="#A9A9A9" fill-opacity="0.04" stroke="#A9A9A9" stroke-opacity="0.2" stroke-width="1"/>
  <text x="100" y="695" font-family="monospace" font-size="12" fill="#A9A9A9" fill-opacity="0.9" letter-spacing="2">SPECIFICATION: Spoon XL Freestanding Bathtub in Translucent Smoked Cristalmood Resin with Concealed Drain</text>
  <text x="100" y="715" font-family="monospace" font-size="10" fill="#A9A9A9" fill-opacity="0.5" letter-spacing="1">FACTORY AUTHORIZED &bull; PASSES EN/ISO 9001 STRUCTURAL INTEGRITY STANDARDS</text>
</svg>