<svg xmlns="http://www.w3.org/2000/svg" viewBox="0 0 1200 800" width="1200" height="800">
  <defs>
    <linearGradient id="bgGrad" x1="0%" y1="0%" x2="100%" y2="100%"><stop offset="0%" stop-color="#26201B"/><stop offset="100%" stop-color="#14100D"/></linearGradient>
    <radialGradient id="halo" cx="65%" cy="40%" r="50%"><stop offset="0%" stop-color="#D4AF37" stop-opacity="0.3"/><stop offset="100%" stop-color="#14100D" stop-opacity="0"/></radialGradient>
    <linearGradient id="glassGrad" x1="0%" y1="0%" x2="0%" y2="100%"><stop offset="0%" stop-color="#FFFFFF" stop-opacity="0.12"/><stop offset="100%" stop-color="#FFFFFF" stop-opacity="0.02"/></linearGradient>
  </defs>
  <rect width="1200" height="800" fill="url(#bgGrad)"/><rect width="1200" height="800" fill="url(#halo)"/>
  <g stroke="#D4AF37" stroke-opacity="0.15" stroke-width="1">
    <line x1="80" y1="0" x2="80" y2="800"/><line x1="1120" y1="0" x2="1120" y2="800"/>
    <line x1="0" y1="100" x2="1200" y2="100"/><line x1="0" y1="700" x2="1200" y2="700"/>
  </g>
  <g transform="translate(600, 140)">
    <rect x="0" y="0" width="520" height="520" rx="16" fill="url(#glassGrad)" stroke="#D4AF37" stroke-opacity="0.4" stroke-width="1.5"/>
    <g transform="translate(50, 60)">
      <rect x="40" y="40" width="360" height="340" fill="#D4AF37" fill-opacity="0.15" stroke="#D4AF37" stroke-width="2"/>
      <line x1="160" y1="40" x2="160" y2="380" stroke="#D4AF37" stroke-width="1.5"/>
      <line x1="280" y1="40" x2="280" y2="380" stroke="#D4AF37" stroke-width="1.5"/>
    </g>
  </g>
  <g transform="translate(100, 160)">
    <rect x="0" y="0" width="340" height="28" rx="4" fill="#D4AF37" fill-opacity="0.2" stroke="#D4AF37" stroke-width="1"/>
    <text x="16" y="18" font-family="monospace" font-size="11" font-weight="700" fill="#D4AF37" letter-spacing="3">01 • KITCHEN ARCHITECTURE</text>
    <text x="0" y="90" font-family="serif" font-size="52" font-weight="700" fill="#FFFFFF" letter-spacing="4">POLIFORM</text>
    <text x="0" y="130" font-family="serif" font-style="italic" font-size="24" fill="#D4AF37">Smoked Oak Joinery &amp; Glass Showcases</text>
    <line x1="0" y1="160" x2="440" y2="160" stroke="#D4AF37" stroke-width="2"/>
    <g transform="translate(0, 200)">
      <circle cx="8" cy="8" r="4" fill="#D4AF37"/><text x="24" y="12" font-family="sans-serif" font-size="15" fill="#E2E8F0">Smoked Oak Joinery Slabs</text>
      <circle cx="8" cy="52" r="4" fill="#D4AF37"/><text x="24" y="56" font-family="sans-serif" font-size="15" fill="#E2E8F0">Frameless Glass Showcases</text>
      <circle cx="8" cy="96" r="4" fill="#D4AF37"/><text x="24" y="100" font-family="sans-serif" font-size="15" fill="#E2E8F0">Integrated Cove LED Channels</text>
    </g>
  </g>
  <g transform="translate(100, 740)">
    <text x="0" y="0" font-family="monospace" font-size="11" fill="#D4AF37" letter-spacing="2">VAASTVIK DESIGN GROUP &bull; MATERIALITY NETWORK 2026</text>
  </g>
</svg>
