<svg xmlns="http://www.w3.org/2000/svg" viewBox="0 0 1200 800" width="100%" height="100%">
  <defs>
    <linearGradient id="bgGrad_7s0d59" x1="0%" y1="0%" x2="100%" y2="100%">
      <stop offset="0%" stop-color="#181614"/>
      <stop offset="100%" stop-color="#24201C"/>
    </linearGradient>
    <pattern id="grid_d5d9zm" width="40" height="40" patternUnits="userSpaceOnUse">
      <path d="M 40 0 L 0 0 0 40" fill="none" stroke="#F4A460" stroke-opacity="0.08" stroke-width="1"/>
    </pattern>
  </defs>

  <!-- Background -->
  <rect width="1200" height="800" fill="#181614"/>
  <rect width="1200" height="800" fill="url(#grid)"/>

  <!-- Outer Architectural Framing -->
  <rect x="40" y="40" width="1120" height="720" fill="none" stroke="#F4A460" stroke-opacity="0.25" stroke-width="1.5"/>
  <rect x="52" y="52" width="1096" height="696" fill="none" stroke="#F4A460" stroke-opacity="0.12" stroke-width="0.75" stroke-dasharray="4,4"/>
  
  <line x1="20" y1="40" x2="60" y2="40" stroke="#F4A460" stroke-width="1.5"/>
  <line x1="40" y1="20" x2="40" y2="60" stroke="#F4A460" stroke-width="1.5"/>
  
  <line x1="1140" y1="40" x2="1180" y2="40" stroke="#F4A460" stroke-width="1.5"/>
  <line x1="1160" y1="20" x2="1160" y2="60" stroke="#F4A460" stroke-width="1.5"/>

  <line x1="20" y1="760" x2="60" y2="760" stroke="#F4A460" stroke-width="1.5"/>
  <line x1="40" y1="740" x2="40" y2="780" stroke="#F4A460" stroke-width="1.5"/>

  <line x1="1140" y1="760" x2="1180" y2="760" stroke="#F4A460" stroke-width="1.5"/>
  <line x1="1160" y1="740" x2="1160" y2="780" stroke="#F4A460" stroke-width="1.5"/>

  <!-- Technical Header -->
  <text x="80" y="90" font-family="monospace" font-size="13" fill="#F4A460" fill-opacity="0.9" letter-spacing="3">VAASTVIK DESIGN GROUP &bull; ARCHITECTURAL SPECIFICATION</text>
  <text x="80" y="115" font-family="monospace" font-size="11" fill="#F4A460" fill-opacity="0.6" letter-spacing="2">DRAWING REF: VDG-2026-SPEC &bull; SCALE 1:10 &bull; UNITS: MM</text>
  
  <!-- Title & Description -->
  <text x="80" y="180" font-family="Georgia, serif" font-size="38" font-weight="300" fill="#F4A460" letter-spacing="1">VIABIZZUNO &bull; PLASTER-IN LINEAR LIGHT SLOT</text>
  <text x="80" y="215" font-family="monospace" font-size="13" fill="#F4A460" fill-opacity="0.75" letter-spacing="2">FIG 01 &bull; CONTINUOUS SPATIAL ILLUMINATION PROFILE</text>

  <!-- Central Technical Artwork / Schematic Diagram -->
  <g transform="translate(600, 430)">
    <path d="M-300,-100 L-100,-100 L-100,50 L100,50 L100,-100 L300,-100" fill="none" stroke="#F4A460" stroke-width="2"/>
           <line x1="-100" y1="0" x2="100" y2="0" stroke="#F4A460" stroke-width="3"/>
           <line x1="-300" y1="50" x2="300" y2="50" stroke="#F4A460" stroke-width="1" stroke-dasharray="4,4"/>
  </g>

  <!-- Bottom Specification Box -->
  <rect x="80" y="670" width="1040" height="60" fill="#F4A460" fill-opacity="0.04" stroke="#F4A460" stroke-opacity="0.2" stroke-width="1"/>
  <text x="100" y="695" font-family="monospace" font-size="12" fill="#F4A460" fill-opacity="0.9" letter-spacing="2">SPECIFICATION: Concealed Architectural Lighting Channel Integrated Seamlessly into Gypsum Plaster Ceilings</text>
  <text x="100" y="715" font-family="monospace" font-size="10" fill="#F4A460" fill-opacity="0.5" letter-spacing="1">FACTORY AUTHORIZED &bull; PASSES EN/ISO 9001 STRUCTURAL INTEGRITY STANDARDS</text>
</svg>