<svg xmlns="http://www.w3.org/2000/svg" viewBox="0 0 1200 800" width="1200" height="800">
  <defs>
    <linearGradient id="bgGrad" x1="0%" y1="0%" x2="100%" y2="100%"><stop offset="0%" stop-color="#281E18"/><stop offset="100%" stop-color="#150E0A"/></linearGradient>
    <radialGradient id="halo" cx="65%" cy="40%" r="50%"><stop offset="0%" stop-color="#CD853F" stop-opacity="0.3"/><stop offset="100%" stop-color="#150E0A" stop-opacity="0"/></radialGradient>
    <linearGradient id="glassGrad" x1="0%" y1="0%" x2="0%" y2="100%"><stop offset="0%" stop-color="#FFFFFF" stop-opacity="0.12"/><stop offset="100%" stop-color="#FFFFFF" stop-opacity="0.02"/></linearGradient>
  </defs>
  <rect width="1200" height="800" fill="url(#bgGrad)"/><rect width="1200" height="800" fill="url(#halo)"/>
  <g transform="translate(600, 140)">
    <rect x="0" y="0" width="520" height="520" rx="16" fill="url(#glassGrad)" stroke="#CD853F" stroke-opacity="0.4" stroke-width="1.5"/>
    <g transform="translate(80, 120)">
      <rect x="60" y="100" width="70" height="70" rx="35" fill="#CD853F" fill-opacity="0.2" stroke="#CD853F" stroke-width="2"/>
      <path d="M 100,135 Q 200,90 300,135" stroke="#CD853F" stroke-width="24" fill="none" stroke-linecap="round"/>
    </g>
  </g>
  <g transform="translate(100, 160)">
    <rect x="0" y="0" width="340" height="28" rx="4" fill="#CD853F" fill-opacity="0.2" stroke="#CD853F" stroke-width="1"/>
    <text x="16" y="18" font-family="monospace" font-size="11" font-weight="700" fill="#CD853F" letter-spacing="3">03 • ARCHITECTURAL HARDWARE</text>
    <text x="0" y="90" font-family="serif" font-size="44" font-weight="700" fill="#FFFFFF" letter-spacing="4">FSB ARCHITECTURAL</text>
    <text x="0" y="130" font-family="serif" font-style="italic" font-size="22" fill="#CD853F">Classic Bauhaus Ergonomic Levers &amp; Patinated Bronze</text>
    <line x1="0" y1="160" x2="440" y2="160" stroke="#CD853F" stroke-width="2"/>
    <g transform="translate(0, 200)">
      <circle cx="8" cy="8" r="4" fill="#CD853F"/><text x="24" y="12" font-family="sans-serif" font-size="15" fill="#E2E8F0">Bauhaus Classic Designs</text>
      <circle cx="8" cy="52" r="4" fill="#CD853F"/><text x="24" y="56" font-family="sans-serif" font-size="15" fill="#E2E8F0">Patinated Cast Bronze</text>
      <circle cx="8" cy="96" r="4" fill="#CD853F"/><text x="24" y="100" font-family="sans-serif" font-size="15" fill="#E2E8F0">Ergonomic Grip Curves</text>
    </g>
  </g>
  <g transform="translate(100, 740)">
    <text x="0" y="0" font-family="monospace" font-size="11" fill="#CD853F" letter-spacing="2">VAASTVIK DESIGN GROUP &bull; MATERIALITY NETWORK 2026</text>
  </g>
</svg>
